<svg id="Layer_1" data-name="Layer 1" xmlns="http://www.w3.org/2000/svg" viewBox="0 0 64 64"><defs><style>.cls-1{fill:#fff;stroke:#fff;stroke-miterlimit:10;stroke-width:2.27px;}</style></defs><title>favicon</title><path class="cls-1" d="M11.62,33.4c0,2.24,1.17,4.36,3.27,6.24L6.38,33.51a.13.13,0,0,1,0-.22l8.51-6.13C12.79,29,11.62,31.16,11.62,33.4Z"/><path class="cls-1" d="M38.05,33.4c-5.76,0-6,1-6,26.4,0-25.44-.27-26.4-6-26.4,5.76,0,6,0,6-19.2C32,33.4,32.29,33.4,38.05,33.4Z"/><path class="cls-1" d="M57.62,33.51l-8.51,6.13c2.1-1.88,3.27-4,3.27-6.24S51.21,29,49.11,27.16l8.51,6.13A.13.13,0,0,1,57.62,33.51Z"/></svg>