<svg id="Layer_1" data-name="Layer 1" xmlns="http://www.w3.org/2000/svg" viewBox="0 0 64 64"><defs><style>.cls-1{fill:none;}.cls-2{fill:#fff;}</style></defs><title>favicon</title><rect class="cls-1" width="64" height="64"/><path class="cls-2" d="M8.43,28.84c0,2.59,1.37,5,3.79,7.21L2.38,29a.15.15,0,0,1,0-.25l9.84-7.09C9.8,23.8,8.43,26.25,8.43,28.84Z"/><path class="cls-2" d="M11.45,37.12,1.61,30A1.47,1.47,0,0,1,1,28.84a1.44,1.44,0,0,1,.62-1.19l9.83-7.09,1.65,2c-2.23,2-3.36,4.09-3.36,6.24s1.13,4.24,3.36,6.24Zm-7-8.28L7.39,31a8.46,8.46,0,0,1,0-4.24Zm-1.3.93h0Zm0-1.88h0Z"/><path class="cls-2" d="M39,28.84c-6.66,0-7,1.11-7,30.52,0-29.41-.31-30.52-7-30.52,6.66,0,7,0,7-22.2C32,28.84,32.34,28.84,39,28.84Z"/><path class="cls-2" d="M33.34,59.36H30.72c0-29.21-.43-29.21-5.66-29.21V27.53c3.55,0,4.17-.13,4.74-1.87.83-2.54.92-8,.92-19h2.62c0,11,.09,16.48.92,19,.57,1.74,1.19,1.87,4.74,1.87v2.62C33.77,30.15,33.34,30.15,33.34,59.36ZM30.58,29A6.16,6.16,0,0,1,32,31.64,6.16,6.16,0,0,1,33.48,29,4.53,4.53,0,0,1,32,27.12,4.53,4.53,0,0,1,30.58,29Z"/><path class="cls-2" d="M61.62,29l-9.84,7.09c2.42-2.17,3.79-4.62,3.79-7.21s-1.37-5-3.79-7.22l9.84,7.09A.15.15,0,0,1,61.62,29Z"/><path class="cls-2" d="M52.55,37.12l-1.65-2c2.23-2,3.36-4.1,3.36-6.24s-1.13-4.25-3.36-6.24l1.65-2,9.84,7.09A1.45,1.45,0,0,1,63,28.84,1.48,1.48,0,0,1,62.39,30Zm4.06-10.4a8.46,8.46,0,0,1,0,4.24l2.94-2.12Zm4.24,3.05h0Zm0-1.88h0Z"/></svg>